<svg width="1774" height="1908" viewBox="0 0 1774 1908" fill="none" xmlns="http://www.w3.org/2000/svg">
<path d="M1754.89 463.804C1648.06 289.258 1487.13 154.391 1296.59 79.7271C1106.05 5.06328 896.337 -5.30973 699.36 50.1865C502.383 105.683 328.929 224.01 205.392 387.161C81.8552 550.313 15 749.355 15 954.001C15 1158.65 81.8552 1357.69 205.392 1520.84C328.929 1683.99 502.383 1802.32 699.36 1857.82C896.337 1913.31 1106.05 1902.94 1296.59 1828.27C1487.13 1753.61 1648.06 1618.74 1754.89 1444.2C1756.53 1441.53 1757.61 1438.55 1758.08 1435.45C1758.55 1432.36 1758.39 1429.2 1757.62 1426.16C1756.85 1423.12 1755.48 1420.27 1753.59 1417.77C1751.69 1415.27 1749.32 1413.18 1746.61 1411.61L1583.9 1317.67C1578.62 1314.63 1572.37 1313.75 1566.45 1315.23C1560.54 1316.72 1555.44 1320.44 1552.22 1325.62C1471.44 1455.65 1350.49 1555.83 1207.68 1610.97C1064.88 1666.12 907.988 1673.23 760.778 1631.23C613.567 1589.22 484.051 1500.4 391.841 1378.2C299.632 1256 249.75 1107.09 249.75 954.001C249.75 800.916 299.632 651.999 391.841 529.801C484.051 407.602 613.567 318.777 760.778 276.776C907.988 234.774 1064.88 241.884 1207.68 297.028C1350.49 352.172 1471.44 452.347 1552.22 582.385C1555.44 587.562 1560.54 591.285 1566.45 592.768C1572.37 594.25 1578.62 593.375 1583.9 590.327L1746.61 496.389C1749.32 494.822 1751.69 492.728 1753.59 490.23C1755.48 487.732 1756.85 484.88 1757.62 481.843C1758.39 478.806 1758.55 475.646 1758.08 472.547C1757.61 469.449 1756.53 466.476 1754.89 463.804Z" fill="url(#paint0_linear_12_45)" stroke="white" stroke-width="30" stroke-linecap="round" stroke-linejoin="round"/>
<path d="M1449.58 639.641C1380.42 530.608 1277.23 447.427 1156 402.985C1034.77 358.543 902.268 355.321 779.021 393.818C655.775 432.315 548.664 510.383 474.284 615.926C399.904 721.469 362.406 848.595 367.6 977.61C372.794 1106.62 420.391 1230.32 503.015 1329.55C585.639 1428.77 698.679 1497.97 824.621 1526.44C950.563 1554.9 1082.38 1541.04 1199.64 1487C1316.91 1432.95 1413.08 1341.74 1473.25 1227.5L1518.28 1250.32C1520.44 1251.41 1522.9 1251.81 1525.3 1251.46C1527.7 1251.1 1529.94 1250.01 1531.69 1248.33C1533.45 1246.65 1534.64 1244.47 1535.1 1242.08C1535.57 1239.7 1535.28 1237.23 1534.28 1235.01L1528.66 1222.59L1449.46 1047.26C1447.26 1042.38 1443.45 1038.4 1438.68 1035.98C1433.9 1033.56 1428.44 1032.85 1423.21 1033.96L1234.99 1073.79L1221.65 1076.62C1219.27 1077.12 1217.11 1078.35 1215.46 1080.13C1213.81 1081.92 1212.75 1084.17 1212.44 1086.58C1212.12 1088.99 1212.56 1091.43 1213.7 1093.58C1214.83 1095.73 1216.6 1097.47 1218.77 1098.57L1263.8 1121.38C1227.2 1189.13 1169.4 1243 1099.26 1274.77C1029.12 1306.53 950.501 1314.43 875.444 1297.25C800.386 1280.07 733.028 1238.77 683.685 1179.66C634.341 1120.55 605.732 1046.9 602.238 969.978C598.744 893.059 620.559 817.116 664.341 753.777C708.123 690.438 771.46 643.196 844.651 619.285C917.842 595.374 996.853 596.112 1069.58 621.386C1142.32 646.661 1204.76 695.078 1247.35 759.223C1250.65 764.198 1255.73 767.728 1261.54 769.092C1267.36 770.457 1273.47 769.554 1278.64 766.568L1441.5 672.545C1444.24 670.963 1446.63 668.842 1448.53 666.311C1450.43 663.78 1451.8 660.891 1452.56 657.817C1453.31 654.744 1453.44 651.549 1452.93 648.425C1452.41 645.302 1451.28 642.314 1449.58 639.641Z" fill="url(#paint1_linear_12_45)" stroke="white" stroke-width="30" stroke-linecap="round" stroke-linejoin="round"/>
<defs>
<linearGradient id="paint0_linear_12_45" x1="886.673" y1="15.0001" x2="886.673" y2="1893" gradientUnits="userSpaceOnUse">
<stop stop-color="#0A1538"/>
</linearGradient>
<linearGradient id="paint1_linear_12_45" x1="951.012" y1="367.17" x2="951.012" y2="1541.07" gradientUnits="userSpaceOnUse">
<stop offset="0.15" stop-color="#FF6A1A"/>
<stop offset="0.4" stop-color="#E91E63"/>
<stop offset="0.65" stop-color="#8B1FC4"/>
<stop offset="0.9" stop-color="#2D7FFF"/>
</linearGradient>
</defs>
</svg>
